<svg xmlns="http://www.w3.org/2000/svg" version="1.1" xmlns:xlink="http://www.w3.org/1999/xlink" preserveAspectRatio="none" x="0px" y="0px" width="660px" height="1161px" viewBox="0 0 660 1161">
<defs>
<g id="Layer0_0_FILL">
<path fill="#8A8A8A" fill-opacity="0.9764705882352941" stroke="none" d="
M 579 109
Q 538.05 116.55 492.8 123.8 476.45 126.45 463.85 119.1 408.65 86.9 406 0 391.4 46.4 372.1 88.6 365.85 102.35 353.05 104.15 264.45 116.65 182 81 212.55 120.95 243.3 160.55 253.8 174.15 252.65 192.6 246.9 281.9 200 341 251.05 317.1 307.65 298 321 293.5 333.55 299.85 396.3798828125 331.58984375 397 427.9 397.009375 427.425 397.15 427.05 416.55 379.05 438 333 444.2 333.3 447.55 336.35 519.8 401.6 479 510 479 510.5 479.25 510.8 494.05 530.9 523 532 538.65 511.15 542.8 480.7 559 363.05 496 303
L 496 302.5
Q 548.1 303.4 603 307 557.55 282.45 521.35 248.6 513.1 240.9 514.9 230 527.7 152.7 579 109
M 397.25 129.25
Q 397.5 129 398 129 422.5 164.5 479 167.95 479.5 168 480 168 459.6 211.95 474.85 258.05 475 258.5 475 259 436.8 272.3 409.75 296.75 409.5 297 409 297 377.3 244.15 294 256.5
L 294 256
Q 308.9 206.65 291.15 158.95 291 158.5 291 158 361.2 166.85 397.25 129.25 Z"/>

<path fill="#8A8A8A" fill-opacity="0.03137254901960784" stroke="none" d="
M 398 129
Q 397.5 129 397.25 129.25 361.2 166.85 291 158 291 158.5 291.15 158.95 308.9 206.65 294 256
L 294 256.5
Q 377.3 244.15 409 297 409.5 297 409.75 296.75 436.8 272.3 475 259 475 258.5 474.85 258.05 459.6 211.95 480 168 479.5 168 479 167.95 422.5 164.5 398 129
M 324.95 193
Q 325 192.5 325 192 359.45 178.45 394.85 165.55 395 165.5 395 165 415.85 178.65 441.05 187.85 441.5 188 442 188 444.5 216.45 443.05 242 443 242.5 443 243 429.55 253.05 412.95 259.85 412.5 260 412 260 381.05 232.45 328 227.05 327.5 227 327 227 323.85 207.75 324.95 193 Z"/>

<path fill="#8A8A8A" fill-opacity="0.9921568627450981" stroke="none" d="
M 325 192
Q 325 192.5 324.95 193 323.85 207.75 327 227 327.5 227 328 227.05 381.05 232.45 412 260 412.5 260 412.95 259.85 429.55 253.05 443 243 443 242.5 443.05 242 444.5 216.45 442 188 441.5 188 441.05 187.85 415.85 178.65 395 165 395 165.5 394.85 165.55 359.45 178.45 325 192
M 190.5 512
Q 110.9 552.4 60.5 621.65 10.25 690.75 0 800 0.15 838.85 6.9 872.6 26.5 971 83.35 1033.6 140.3 1096.2 225 1131
L 225 1131.5
Q 141.2 1130.2 75 1146 100.8 1155.2 135.95 1156.7 251.25 1161.55 366 1161.85 487.7 1162.2 591 1146 591 1145.5 590.9 1145.5 521.65 1132.85 443 1130 462.05 1119.55 482.25 1109.5 561.7 1070.15 611.35 999.65 660.5 929.95 660.8 815 661.15 699.35 609 632 596.7 649.7 585.35 668.2 573.85 686.85 551.5 688.55 440.9 696.95 373.15 642 290.7 575.2 349 482 254.55 479.55 190.5 512
M 223 516.05
Q 252.7 505.2 285 502 192.95 529.4 134.4 590.45 75.95 651.45 67.45 756.5 57.85 875.15 110.85 943.35 128 965.45 111 987 102.55 991.35 91.95 988.15 91.5 988 91 988 28.2 931.35 20.45 819.05 19.55 805.9 20 791 28.2 679.7 81.7 614.1 135.55 548.05 223 516.05 Z"/>

<path fill="#8A8A8A" fill-opacity="0.9882352941176471" stroke="none" d="
M 379 489
Q 378.5 489 378.3 489.25 358.85 514.85 348 549 348 552 348 555 348 555.5 348 556 388.35 635.15 480.15 662.5 568.7 688.9 591 608 480.6 598.95 420.85 539.15 406.6 524.9 394 509 393.5 509 393.4 508.8 387.15 497.85 379 489 Z"/>

<path fill="#8A8A8A" fill-opacity="0.6862745098039216" stroke="none" d="
M 379 485
Q 379 485.5 378.75 485.85 360.4 511.4 347 542 347 549 347.5 555.95 347.5 556 348 556 348 555.5 348 555 348 552 348 549 358.85 514.85 378.3 489.25 378.5 489 379 489 387.15 497.85 393.4 508.8 393.5 509 394 509 394 508.5 393.8 508.1 387.3 495.7 379 485 Z"/>

<path fill="#8A8A8A" fill-opacity="0.6470588235294118" stroke="none" d="
M 475 452
Q 475 451.5 474.8 451.4 424.25 428.2 394 461 394 482.55 403.3 494.75 403.5 495 404 495 404 494.5 403.75 494.15 395.6 481.9 395 462 424.25 430.2 474.1 451.8 474.5 452 475 452 Z"/>

<path fill="#8A8A8A" fill-opacity="0.9803921568627451" stroke="none" d="
M 560.9 497.2
Q 560.5 497 560 497 550.1 526.6 529.25 545.3 529 545.5 529 546 476.65 550.3 462.15 506.95 462 506.5 462 506 473.6 478.65 475.5 452
L 475 452
Q 474.5 452 474.1 451.8 424.25 430.2 395 462 395.6 481.9 403.75 494.15 404 494.5 404 495 453.05 565.45 549.75 589 583.25 597.15 605 582 611.8 525.1 560.9 497.2 Z"/>

<path fill="#8A8A8A" fill-opacity="0.11764705882352941" stroke="none" d="
M 285 502
Q 252.7 505.2 223 516.05 135.55 548.05 81.7 614.1 28.2 679.7 20 791 19.55 805.9 20.45 819.05 28.2 931.35 91 988 91.5 988 91.95 988.15 102.55 991.35 111 987 128 965.45 110.85 943.35 57.85 875.15 67.45 756.5 75.95 651.45 134.4 590.45 192.95 529.4 285 502
M 227.4 515.35
Q 238.35 511.4 250 512 166.7 544.65 112.55 612.05 59.5 678 63.35 795.85 66.35 888.95 110 950.4 124.6 970.95 108 987 101 988.55 94 987.1 93.5 987 93 987 29.8 930.75 22.15 818.05 21.25 804.75 22 789 31.25 678.75 85 613.35 139.05 547.55 227.4 515.35 Z"/>
</g>
</defs>

<g transform="matrix( 1, 0, 0, 1, 0,0) ">
<use xlink:href="#Layer0_0_FILL"/>
</g>
</svg>
