<?xml version="1.0" encoding="UTF-8"?>
<svg version="1.1" xmlns="http://www.w3.org/2000/svg" width="512" height="512">
<path d="M0 0 C2.4375 1.5 2.4375 1.5 4 4 C4.76865078 7.429365 4.97803133 8.75750488 4 12 C-3.52004448 22.56174197 -14.40175668 31.51161981 -23.5625 40.625 C-25.25609267 42.31356813 -26.94945404 44.00236828 -28.64257812 45.69140625 C-32.75905429 49.79695124 -36.87838253 53.89961681 -41 58 C-40.38851608 58.80806091 -40.38851608 58.80806091 -39.76467896 59.63244629 C-39.22761322 60.34477417 -38.69054749 61.05710205 -38.13720703 61.79101562 C-37.60580109 62.4947229 -37.07439514 63.19843018 -36.52688599 63.92346191 C-32.99812277 68.72251783 -30.02248334 73.8721116 -27 79 C-26.34257813 80.10214844 -26.34257813 80.10214844 -25.671875 81.2265625 C-22.2798827 87.37771272 -20.27328915 94.36057444 -21.66479492 101.3293457 C-23.20900995 105.57459584 -24.97515258 107.47299901 -28.26171875 110.5390625 C-29.30798312 111.5416245 -30.35420587 112.54422992 -31.40039062 113.546875 C-33.04917919 115.09577435 -34.70283332 116.63927377 -36.35864258 118.18066406 C-37.96373653 119.6834668 -39.55045315 121.20393777 -41.13671875 122.7265625 C-42.09280029 123.61939941 -43.04888184 124.51223633 -44.03393555 125.43212891 C-46.2840653 127.80708728 -46.2840653 127.80708728 -45.90625 130.61108398 C-44.6149745 134.01494463 -42.99987816 137.21857938 -41.3125 140.4375 C-26.43136865 169.63714275 -18.53211726 200.90489219 -18.625 233.75 C-18.62521149 234.4525592 -18.62542297 235.15511841 -18.62564087 235.87896729 C-18.74992899 277.80824081 -31.04491438 319.96572673 -56 354 C-56.71671875 354.99902344 -57.4334375 355.99804688 -58.171875 357.02734375 C-62.45213895 362.87949774 -66.9721837 368.37764028 -71.890625 373.703125 C-73.77899812 375.75935351 -75.57980583 377.86286408 -77.375 380 C-101.87069295 407.97902543 -138.60135772 427.31870703 -174.1875 436.375 C-175.51914185 436.7148291 -175.51914185 436.7148291 -176.87768555 437.06152344 C-193.20930793 440.94965693 -209.43041351 442.56058001 -226.1875 442.4375 C-227.07497925 442.43445862 -227.9624585 442.43141724 -228.87683105 442.42828369 C-279.7011023 442.1720326 -328.34451069 423.56407011 -365.79296875 389.01953125 C-367.71482152 387.26095093 -369.67647489 385.59180225 -371.6875 383.9375 C-375.54936853 380.64144011 -378.74480858 376.88396079 -382 373 C-382.77472656 372.10152344 -383.54945313 371.20304687 -384.34765625 370.27734375 C-390.40056147 363.17664041 -395.91238348 355.83384984 -401 348 C-401.36448242 347.44006348 -401.72896484 346.88012695 -402.10449219 346.30322266 C-431.80383973 300.10278131 -441.16532521 243.52420364 -429.74609375 189.91796875 C-417.22501126 134.9077431 -383.06626544 87.48668134 -335.46435547 57.39868164 C-288.7631577 28.8505051 -231.72306694 19.8833716 -178.47216797 32.390625 C-161.29662297 36.62429677 -144.24180303 42.42312055 -128.91015625 51.3828125 C-127.01454189 52.20956082 -127.01454189 52.20956082 -125.21508789 51.36303711 C-122.28992599 49.56306148 -120.02666109 47.25404014 -117.6484375 44.80859375 C-117.1483316 44.30328629 -116.64822571 43.79797882 -116.13296509 43.27735901 C-114.54213057 41.66876916 -112.95816916 40.05363181 -111.375 38.4375 C-109.78382224 36.81869762 -108.19120299 35.20138179 -106.59561157 33.58692932 C-105.60452902 32.58359573 -104.61613192 31.57760092 -103.63070679 30.56871033 C-100.05502338 26.94083274 -98.19739666 25.81613379 -93.125 25.625 C-78.87365873 25.82885534 -65.44720299 36.03623671 -55 45 C-51.56119198 43.51972261 -49.34682076 41.58477056 -46.72216797 38.93334961 C-45.88805389 38.09585678 -45.05393982 37.25836395 -44.19454956 36.39549255 C-42.85688034 35.0376339 -42.85688034 35.0376339 -41.4921875 33.65234375 C-40.08402112 32.23623158 -38.67585227 30.82012186 -37.26753426 29.4041605 C-35.29940412 27.42291095 -33.33585396 25.43715265 -31.37231445 23.45135498 C-27.92922893 19.97023439 -24.48126777 16.49395783 -21.02981567 13.02113342 C-19.19298096 11.1720022 -17.35882531 9.32020529 -15.52755737 7.46556091 C-14.69974762 6.63122025 -13.87193787 5.79687958 -13.01904297 4.93725586 C-12.28942352 4.19938339 -11.55980408 3.46151093 -10.80807495 2.70127869 C-7.38701193 -0.51771486 -4.60746526 -0.39719528 0 0 Z " fill="#2F2E3C" transform="translate(434,70)"/>
<path d="M0 0 C0.66 0 1.32 0 2 0 C2.22026855 0.64211426 2.44053711 1.28422852 2.66748047 1.94580078 C16.1865283 41.08500814 34.65946475 76.51416527 63 107 C64.08719295 108.26753302 65.17062105 109.53830631 66.25 110.8125 C75.10713606 120.91167124 84.721556 129.70663256 95.42773438 137.79492188 C97.64468605 139.49412583 99.78603477 141.28148573 101.9375 143.0625 C129.02172011 164.63361554 162.58498944 180.37834276 196 189 C197.03640625 189.27585937 198.0728125 189.55171875 199.140625 189.8359375 C205.1420025 191.39495456 211.19212902 192.7431384 217.25 194.0625 C217.97566162 194.22500244 218.70132324 194.38750488 219.44897461 194.55493164 C234.44759107 197.75023962 249.13132149 198.32023701 264.41577148 198.26074219 C267.66474314 198.25007472 270.91315499 198.26066665 274.16210938 198.2734375 C291.83659116 198.28677034 309.33476736 197.47887107 326.625 193.5625 C328.06166016 193.25602539 328.06166016 193.25602539 329.52734375 192.94335938 C335.31473038 191.68642358 341.0113091 190.21030106 346.70068359 188.56616211 C349 188 349 188 352 188 C343.65179407 208.99256461 304.66748414 227.12894288 285.51953125 235.41796875 C275.81164605 239.46103711 266.00459594 242.78122049 255.8125 245.375 C254.92473877 245.60155273 254.03697754 245.82810547 253.12231445 246.06152344 C236.79069207 249.94965693 220.56958649 251.56058001 203.8125 251.4375 C202.92502075 251.43445862 202.0375415 251.43141724 201.12316895 251.42828369 C150.2988977 251.1720326 101.65548931 232.56407011 64.20703125 198.01953125 C62.28517848 196.26095093 60.32352511 194.59180225 58.3125 192.9375 C54.45063147 189.64144011 51.25519142 185.88396079 48 182 C47.22527344 181.10152344 46.45054688 180.20304688 45.65234375 179.27734375 C39.59943853 172.17664041 34.08761652 164.83384984 29 157 C28.63551758 156.44006348 28.27103516 155.88012695 27.89550781 155.30322266 C-1.63291597 109.3686711 -10.95061346 53.37169612 0 0 Z " fill="#20202B" transform="translate(4,261)"/>
<path d="M0 0 C1.53846695 0.48710978 3.08227229 0.95744742 4.62890625 1.41796875 C42.09354193 12.58607368 85.03507293 33.60024877 105.84570312 68.59570312 C114.10336235 84.08394952 117.2601145 102.3563047 117.54101562 119.79101562 C117.56325195 120.56018311 117.58548828 121.32935059 117.60839844 122.12182617 C117.58643292 127.7187624 116.19833553 131.98374 113.10351562 136.66601562 C109.26774617 140.30999661 105.38990587 142.93320424 100.00976562 143.10742188 C94.10524243 142.9545111 89.67518666 140.42552694 84.60351562 137.60351562 C83.60868164 137.06549316 82.61384766 136.5274707 81.58886719 135.97314453 C48.97324311 118.13695273 17.59908799 97.28481128 -11.89648438 74.66601562 C-12.93804687 73.8796875 -13.97960937 73.09335938 -15.05273438 72.28320312 C-22.31538276 66.78192072 -29.32199987 61.03197847 -36.22851562 55.09130859 C-37.91976942 53.64611837 -39.62491738 52.21898362 -41.33398438 50.79492188 C-76.63824835 21.23889727 -76.63824835 21.23889727 -79.33007812 6.25195312 C-79.34063169 0.27863262 -79.34063169 0.27863262 -77.08398438 -2.83398438 C-59.79354042 -14.6902888 -18.43160627 -5.87591186 0 0 Z " fill="#515363" transform="translate(239.896484375,141.333984375)"/>
<path d="M0 0 C2.4375 1.5 2.4375 1.5 4 4 C4.76865078 7.429365 4.97803133 8.75750488 4 12 C-3.52004448 22.56174197 -14.40175668 31.51161981 -23.5625 40.625 C-25.25609267 42.31356813 -26.94945404 44.00236828 -28.64257812 45.69140625 C-32.75905429 49.79695124 -36.87838253 53.89961681 -41 58 C-40.38851608 58.80806091 -40.38851608 58.80806091 -39.76467896 59.63244629 C-39.22761322 60.34477417 -38.69054749 61.05710205 -38.13720703 61.79101562 C-37.60580109 62.4947229 -37.07439514 63.19843018 -36.52688599 63.92346191 C-32.99812277 68.72251783 -30.02248334 73.8721116 -27 79 C-26.56171875 79.73476562 -26.1234375 80.46953125 -25.671875 81.2265625 C-22.26378221 87.40690987 -19.98534901 95.03542431 -21.625 102.0625 C-23.17298282 105.36955421 -23.72238058 105.73847022 -27 107 C-39.70461246 108.90322016 -51.01975336 102.01931944 -61 95 C-64.51025593 92.16533841 -67.7485997 89.12366672 -71 86 C-72.30822887 84.9115127 -73.62058332 83.82796003 -74.9375 82.75 C-87.11277559 72.07511191 -99.63654026 56.09431204 -103 40 C-103.3411187 34.62738053 -103.45930236 31.390653 -100 27 C-95.22135595 24.61067798 -89.09246999 25.42266979 -84.09765625 26.80078125 C-73.38941286 30.98346424 -63.69020098 37.54375505 -55 45 C-51.56119198 43.51972261 -49.34682076 41.58477056 -46.72216797 38.93334961 C-45.88805389 38.09585678 -45.05393982 37.25836395 -44.19454956 36.39549255 C-43.30277008 35.49025345 -42.4109906 34.58501434 -41.4921875 33.65234375 C-40.08402112 32.23623158 -38.67585227 30.82012186 -37.26753426 29.4041605 C-35.29940412 27.42291095 -33.33585396 25.43715265 -31.37231445 23.45135498 C-27.92922893 19.97023439 -24.48126777 16.49395783 -21.02981567 13.02113342 C-19.19298096 11.1720022 -17.35882531 9.32020529 -15.52755737 7.46556091 C-14.69974762 6.63122025 -13.87193787 5.79687958 -13.01904297 4.93725586 C-12.28942352 4.19938339 -11.55980408 3.46151093 -10.80807495 2.70127869 C-7.38701193 -0.51771486 -4.60746526 -0.39719528 0 0 Z " fill="#2F2E3C" transform="translate(434,70)"/>
<path d="M0 0 C1 2 1 2 0.8125 5.4375 C0.71124016 19.48730267 11.27137008 32.87984937 20 43 C20.7734375 43.9075 21.546875 44.815 22.34375 45.75 C33.72464065 58.71557163 49.55484438 72.45183276 67 76 C70.67382735 76.14934258 74.32574242 76.11959609 78 76 C73.52190251 81.35546769 68.80800789 86.37491604 63.875 91.3125 C63.17246094 92.02728516 62.46992188 92.74207031 61.74609375 93.47851562 C61.06417969 94.16236328 60.38226563 94.84621094 59.6796875 95.55078125 C59.06851074 96.16606689 58.45733398 96.78135254 57.82763672 97.4152832 C53.41865165 101.23824902 49.2460891 101.67066017 43.546875 101.56640625 C27.45184732 98.99616505 13.36192189 85.68419322 2 75 C1.40960938 74.4740625 0.81921875 73.948125 0.2109375 73.40625 C-10.54553194 63.41445849 -22.42851559 47.42901302 -24.30078125 32.62109375 C-24.30464844 31.90050781 -24.30851562 31.17992187 -24.3125 30.4375 C-24.32925781 29.71433594 -24.34601563 28.99117187 -24.36328125 28.24609375 C-23.51735126 23.01588144 -19.74832107 19.50894749 -16.11328125 15.91796875 C-15.65140915 15.45892654 -15.18953705 14.99988434 -14.71366882 14.52693176 C-13.25127862 13.07565086 -11.78205874 11.63151796 -10.3125 10.1875 C-9.31399177 9.19903354 -8.31594011 8.21010563 -7.31835938 7.22070312 C-4.88335692 4.80922726 -2.4438041 2.40255043 0 0 Z " fill="#20202B" transform="translate(331,100)"/>
<path d="M0 0 C2.4375 1.5 2.4375 1.5 4 4 C4.77171312 7.44302778 5.0067039 8.75075442 4 12 C2.36938477 14.19067383 2.36938477 14.19067383 0.19140625 16.51953125 C-0.62400635 17.39383789 -1.43941895 18.26814453 -2.27954102 19.16894531 C-6.59533826 23.66019407 -10.93601698 28.12202697 -15.34082031 32.52612305 C-16.89938025 34.08691516 -18.44970337 35.65561399 -20 37.22460938 C-20.99690832 38.22444466 -21.99428622 39.22381201 -22.9921875 40.22265625 C-23.88276855 41.11734619 -24.77334961 42.01203613 -25.69091797 42.93383789 C-28.64610316 45.57813185 -30.50413921 45.95492175 -34.4375 46.3125 C-38 46 -38 46 -40.5 44.5625 C-42.46445281 41.20655978 -42.21426637 39.18228159 -41.70724487 35.40087891 C-40.39845123 30.95792687 -37.26705651 28.26809783 -33.97265625 25.15625 C-32.91648354 24.11349915 -32.91648354 24.11349915 -31.838974 23.04968262 C-29.59829185 20.84695657 -27.3310794 18.67394489 -25.0625 16.5 C-23.54054489 15.00962072 -22.02034209 13.51744978 -20.50195312 12.0234375 C-17.72776895 9.3076275 -14.9498457 6.59620159 -12.14868164 3.90820312 C-11.58766251 3.36909302 -11.02664337 2.82998291 -10.44862366 2.27453613 C-7.18295542 -0.59868228 -4.22069457 -0.36385298 0 0 Z " fill="#E71A28" transform="translate(434,70)"/>
<path d="M0 0 C2.58455285 1.89533875 2.96275506 2.88826517 4 6 C4.10932546 8.8909695 4.16405401 11.75709034 4.16796875 14.6484375 C4.17129715 15.49798004 4.17462555 16.34752258 4.17805481 17.22280884 C4.18311658 19.01995299 4.18546337 20.81710654 4.18530273 22.61425781 C4.18748614 25.35758037 4.20564113 28.10049875 4.22460938 30.84375 C4.2275441 32.59114446 4.22952837 34.33854083 4.23046875 36.0859375 C4.23765427 36.9037973 4.24483978 37.7216571 4.25224304 38.56430054 C4.2354288 42.77655811 4.13331753 46.23950062 2 50 C-1.7205836 52.48038907 -3.59796571 52.46337203 -8 52 C-10.36497439 50.13291495 -11.66030715 48.67938569 -13 46 C-13.11154138 42.9844459 -13.16412824 39.9927025 -13.16796875 36.9765625 C-13.17296135 35.62998062 -13.17296135 35.62998062 -13.17805481 34.25619507 C-13.18312296 32.3547212 -13.18546317 30.45323843 -13.18530273 28.55175781 C-13.18748594 25.64373067 -13.20563371 22.73608481 -13.22460938 19.828125 C-13.22754397 17.98177213 -13.22952832 16.13541746 -13.23046875 14.2890625 C-13.23765427 13.4191568 -13.24483978 12.5492511 -13.25224304 11.65298462 C-13.2476281 10.43184464 -13.2476281 10.43184464 -13.24291992 9.18603516 C-13.24505745 8.11586655 -13.24505745 8.11586655 -13.24723816 7.02407837 C-12.95630732 4.64229868 -12.22850932 3.05118916 -11 1 C-7.4367155 -1.7714435 -4.20758349 -0.99451973 0 0 Z " fill="#F49F00" transform="translate(437,109)"/>
<path d="M0 0 C3.17904601 0.03418329 3.97419144 0.15388594 6.625 2.125 C9.67430835 6.39403169 9.36376907 10.6712584 9.390625 15.70703125 C9.39632507 16.53200607 9.40202515 17.3569809 9.40789795 18.20695496 C9.41734123 19.95281698 9.42387926 21.69869677 9.42773438 23.44458008 C9.43742586 26.10464918 9.46844912 28.76394078 9.5 31.42382812 C9.50653189 33.12239126 9.51178163 34.8209599 9.515625 36.51953125 C9.5279718 37.31035599 9.5403186 38.10118073 9.55303955 38.91596985 C9.53361582 43.77434657 8.87667115 47.10074731 6.1875 51.3125 C3.00928465 52.90160767 -0.35189729 52.71670974 -3.8125 52.3125 C-6.48681489 50.50086733 -6.77170359 49.43488923 -7.8125 46.3125 C-7.93391211 43.34894067 -8.0006944 40.40967429 -8.015625 37.4453125 C-8.02132507 36.57357391 -8.02702515 35.70183533 -8.03289795 34.80368042 C-8.04234183 32.95946464 -8.0488795 31.11523203 -8.05273438 29.27099609 C-8.06243933 26.45510314 -8.09346786 23.63994041 -8.125 20.82421875 C-8.13153043 19.03125433 -8.13678075 17.23828469 -8.140625 15.4453125 C-8.1529718 14.60557892 -8.1653186 13.76584534 -8.17803955 12.90066528 C-8.15358412 6.45682389 -7.28266875 0.59694006 0 0 Z " fill="#F49F00" transform="translate(431.8125,-0.3125)"/>
<path d="M0 0 C3.63980281 2.5455583 6.32244333 5.40109386 9.0625 8.875 C13.26559587 14.12533187 17.60513133 19.23731483 22.01391602 24.31591797 C28.54959413 31.87969238 28.54959413 31.87969238 28.37890625 38.05859375 C28 40 28 40 25.875 42.5 C22.44315756 44.29052649 20.81420233 44.70056777 17 44 C11.84418193 40.67736169 8.37617381 35.9472787 4.58203125 31.18359375 C2.71702679 28.85436455 0.79115489 26.59145971 -1.17578125 24.34765625 C-1.71638184 23.72947021 -2.25698242 23.11128418 -2.81396484 22.47436523 C-3.87565063 21.26500135 -4.94220187 20.05988708 -6.01416016 18.85961914 C-9.33214064 15.06334658 -12.13347347 11.73620616 -11.875 6.4375 C-9.68517022 0.3372599 -6.23453475 -0.87502242 0 0 Z " fill="#F49F00" transform="translate(459,100)"/>
<path d="M0 0 C2.4375 1.5 2.4375 1.5 4 4 C4.86857597 8.89560999 4.86857597 8.89560999 4 12 C-1.70145456 17.82310722 -8.63885085 21.38755765 -15.75 25.25 C-17.99527334 26.48349864 -20.24008687 27.71783473 -22.484375 28.953125 C-23.47147461 29.49098633 -24.45857422 30.02884766 -25.47558594 30.58300781 C-28.12256429 32.02650363 -28.12256429 32.02650363 -31 34 C-33.15625 34.30078125 -33.15625 34.30078125 -35.5 34.3125 C-36.66015625 34.33763672 -36.66015625 34.33763672 -37.84375 34.36328125 C-40.51419195 33.91336983 -41.35512874 33.11049635 -43 31 C-43.9932858 28.0965492 -44.10382967 26.42570166 -43.375 23.4375 C-40.55083049 18.43101769 -35.33123042 15.907974 -30.45703125 13.14453125 C-29.84736008 12.79742599 -29.2376889 12.45032074 -28.60954285 12.09269714 C-26.67948209 10.99521101 -24.74604122 9.90384015 -22.8125 8.8125 C-21.50303489 8.06874714 -20.19378791 7.3246101 -18.88476562 6.58007812 C-6.33705543 -0.54629788 -6.33705543 -0.54629788 0 0 Z " fill="#F49F00" transform="translate(499,36)"/>
<path d="M0 0 C2.42314743 1.92687703 4.02857402 3.46871584 5.9375 5.8125 C6.44619629 6.4005542 6.95489258 6.9886084 7.47900391 7.59448242 C9.01033856 9.37735573 10.50726348 11.18476799 12 13 C12.84433594 14.0003125 13.68867188 15.000625 14.55859375 16.03125 C16.74601789 18.65763447 18.87361713 21.32419671 21 24 C21.62261719 24.71929687 22.24523437 25.43859375 22.88671875 26.1796875 C25.61295831 29.44609108 27.38486746 31.92554028 27.6875 36.25 C27 40 27 40 24.9375 42.5625 C21.03509504 44.47218753 19.13630166 44.255663 15 43 C13.01073767 41.37718073 11.63263122 39.94042235 10 38 C9.34257812 37.28457031 8.68515625 36.56914063 8.0078125 35.83203125 C2.42356185 29.7550526 -2.87983197 23.4718924 -8 17 C-8.47953125 16.4121875 -8.9590625 15.824375 -9.453125 15.21875 C-11.47107383 12.54709943 -12.03758441 10.72751304 -12.5 7.375 C-12 4 -12 4 -10.5 1.5625 C-7.05897059 -0.58814338 -3.90522353 -0.78113709 0 0 Z " fill="#F49F00" transform="translate(390,17)"/>
<path d="M0 0 C0.92748047 0.14630859 1.85496094 0.29261719 2.81054688 0.44335938 C5.87576834 0.92943009 8.93801869 1.43144539 12 1.9375 C12.9909668 2.09500732 13.98193359 2.25251465 15.00292969 2.41479492 C20.11633024 3.28282118 24.55605896 4.15844155 29 7 C31.34549674 10.51824511 31.57991403 11.85775694 31 16 C29 18.875 29 18.875 26 21 C20.57893393 21.30524585 15.51391153 20.77114958 10.17578125 19.79296875 C9.46648972 19.6669075 8.75719818 19.54084625 8.02641296 19.41096497 C6.54097475 19.14463374 5.05617628 18.87471104 3.57202148 18.60131836 C1.30985561 18.1870157 -0.95504827 17.79120374 -3.22070312 17.39648438 C-4.6720765 17.13392391 -6.123256 16.87028902 -7.57421875 16.60546875 C-8.2451506 16.48970993 -8.91608246 16.37395111 -9.60734558 16.25468445 C-13.61876141 15.49665245 -16.68869608 14.4059445 -20 12 C-21.54586876 8.90826248 -21.29359521 6.40570448 -21 3 C-15.41731624 -4.31524079 -7.94626206 -1.29297314 0 0 Z " fill="#F49E00" transform="translate(481,80)"/>
<path d="M0 0 C2.16192108 0.40127496 4.32787887 0.77046598 6.49560547 1.13891602 C7.88788751 1.39414872 9.27982969 1.65124398 10.67138672 1.91040039 C11.91581543 2.1355835 13.16024414 2.3607666 14.44238281 2.59277344 C18.37127275 3.9120994 20.17463255 5.51793462 22.77294922 8.71118164 C23.39794922 11.71118164 23.39794922 11.71118164 22.77294922 14.71118164 C20.77294922 17.58618164 20.77294922 17.58618164 17.77294922 19.71118164 C12.30273481 20.01381392 7.12961894 19.48306675 1.72998047 18.57446289 C0.99849289 18.45314499 0.26700531 18.33182709 -0.48664856 18.20683289 C-2.01916241 17.94910992 -3.55103969 17.68757466 -5.08227539 17.42236328 C-7.41618821 17.02340174 -9.75361168 16.65333074 -12.09228516 16.28344727 C-13.58933242 16.02805254 -15.08608947 15.77094946 -16.58251953 15.51196289 C-17.27532516 15.40652664 -17.9681308 15.30109039 -18.68193054 15.19245911 C-23.60268511 14.29217011 -26.14278321 12.62406934 -29.22705078 8.71118164 C-29.83717431 4.84706598 -29.77270106 2.72453215 -27.91455078 -0.72631836 C-20.13511848 -5.24924411 -8.45117526 -1.5881078 0 0 Z " fill="#F49F00" transform="translate(382.22705078125,62.288818359375)"/>
<path d="M0 0 C1 2 1 2 0.875 4.9375 C0.71471602 7.93128164 0.71471602 7.93128164 2.21484375 9.6796875 C4.51920502 11.38400722 5.8543632 11.31067986 8.6875 11.1875 C10.125 11.125 11.5625 11.0625 13 11 C8.51911489 16.42944531 3.71632397 21.27322592 -1.4375 26.0625 C-2.16259766 26.74376953 -2.88769531 27.42503906 -3.63476562 28.12695312 C-5.74354459 30.09931512 -7.86704725 32.0538291 -10 34 C-10.64831787 34.5971582 -11.29663574 35.19431641 -11.96459961 35.80957031 C-12.87544312 36.62506348 -12.87544312 36.62506348 -13.8046875 37.45703125 C-14.33433105 37.93503174 -14.86397461 38.41303223 -15.40966797 38.90551758 C-17 40 -17 40 -20.6875 40.625 C-24 40 -24 40 -26.4375 38.4375 C-28.66556133 34.96172432 -28.57814996 33.08894465 -28 29 C-25.9915144 26.14782216 -23.51113906 23.90214446 -20.9375 21.5625 C-19.55038475 20.24397214 -18.16494466 18.92367956 -16.78125 17.6015625 C-15.78931641 16.66618652 -15.78931641 16.66618652 -14.77734375 15.71191406 C-12.14330157 13.17483937 -9.78669345 10.44289224 -7.4296875 7.65234375 C-5.09556651 4.95471212 -2.5523859 2.49013258 0 0 Z " fill="#8EA0A6" transform="translate(392,104)"/>
</svg>
